<?xml version="1.0" encoding="utf-8"?>
<svg viewBox="61.649 130.366 333.814 118.499" xmlns="http://www.w3.org/2000/svg">
  <path d="M 94.172 149.413 C 94.172 142.705 95.879 137.868 99.294 134.903 C 102.797 131.879 108.413 130.366 116.139 130.366 L 118.879 130.366 L 118.879 162.665 C 118.879 176.591 114.896 185.515 106.93 189.439 C 104.145 190.816 100.806 191.505 96.913 191.505 L 94.172 191.505 L 94.172 149.413 Z M 83.571 191.505 C 76.054 191.505 70.454 188.885 66.77 183.644 C 63.356 178.792 61.649 171.799 61.649 162.665 L 61.649 130.366 L 64.389 130.366 C 72.116 130.366 77.731 131.879 81.235 134.903 C 84.649 137.868 86.356 142.705 86.356 149.413 L 86.356 191.505 L 83.571 191.505 Z M 129.616 130.366 L 153.784 130.366 L 153.784 191.415 L 129.616 191.415 L 129.616 130.366 Z M 161.241 146.987 C 161.241 140.369 162.918 135.922 166.272 133.646 C 169.446 131.519 175.421 130.456 184.196 130.456 L 188.733 130.456 L 188.733 138.946 C 188.733 145.715 187.011 150.536 183.567 153.411 C 180.063 156.286 174.028 157.724 165.463 157.724 L 161.241 157.724 L 161.241 146.987 Z M 161.241 162.396 L 165.463 162.396 C 173.909 162.396 179.943 164.073 183.567 167.427 C 187.011 170.631 188.733 175.693 188.733 182.61 L 188.733 191.505 L 184.196 191.505 C 175.601 191.505 169.626 190.217 166.272 187.642 C 162.918 185.036 161.241 180.364 161.241 173.626 L 161.241 162.396 Z M 199.649 130.366 L 223.817 130.366 L 223.817 191.415 L 199.649 191.415 L 199.649 130.366 Z M 231.543 187.148 C 231.543 180.948 235.137 176.741 242.325 174.525 C 245.08 173.686 248.629 173.267 252.971 173.267 L 256.52 173.267 L 256.52 191.505 L 231.543 191.505 L 231.543 187.148 Z M 301.127 130.366 L 305.17 130.366 C 316.191 130.366 322.765 134.095 324.891 141.552 C 325.61 144.008 325.969 146.823 325.969 149.997 L 325.969 191.505 L 301.127 191.505 L 301.127 130.366 Z M 267.975 149.997 C 267.975 143.379 269.487 138.527 272.512 135.443 C 275.836 132.058 281.257 130.366 288.774 130.366 L 292.817 130.366 L 292.817 191.505 L 267.975 191.505 L 267.975 149.997 Z M 367.926 130.366 L 371.7 130.366 C 384.398 130.366 391.944 135.952 394.34 147.122 C 395.089 150.506 395.463 154.459 395.463 158.982 C 395.463 163.504 394.984 167.816 394.026 171.919 C 393.097 176.022 391.66 179.526 389.713 182.431 C 385.67 188.48 379.666 191.505 371.7 191.505 L 367.926 191.505 L 367.926 130.366 Z M 336.301 130.366 L 360.469 130.366 L 360.469 191.415 L 336.301 191.415 L 336.301 130.366 Z" style="" transform="matrix(1, 0, 0, 1, 7.105427357601002e-15, 7.105427357601002e-15)"/>
  <path d="M 108.958 222.689 L 107.678 226.529 L 103.262 236.737 L 101.342 236.737 L 96.926 226.529 L 95.646 222.689 L 95.518 222.689 L 95.902 228.673 L 95.902 241.505 L 93.662 241.505 L 93.662 219.105 L 95.902 219.105 L 102.302 234.081 L 108.702 219.105 L 110.942 219.105 L 110.942 241.505 L 108.702 241.505 L 108.702 228.673 L 109.086 222.689 L 108.958 222.689 Z M 116.903 228.129 L 116.583 225.505 L 118.759 225.217 L 119.143 228.129 L 119.143 231.681 L 124.231 231.681 C 125.49 231.681 126.439 232.012 127.079 232.673 C 127.74 233.334 128.071 234.284 128.071 235.521 L 128.071 237.665 C 128.071 238.902 127.74 239.852 127.079 240.513 C 126.439 241.174 125.49 241.505 124.231 241.505 L 116.903 241.505 L 116.903 228.129 Z M 124.167 233.729 L 119.143 233.729 L 119.143 239.457 L 124.167 239.457 C 124.764 239.457 125.191 239.329 125.447 239.073 C 125.703 238.817 125.831 238.369 125.831 237.729 L 125.831 235.457 C 125.831 234.838 125.703 234.401 125.447 234.145 C 125.191 233.868 124.764 233.729 124.167 233.729 Z M 130.407 225.505 L 132.647 225.505 L 132.647 238.881 L 132.967 241.505 L 130.791 241.793 L 130.407 238.881 L 130.407 225.505 Z M 141.984 225.505 L 145.504 225.505 L 148.672 226.401 L 148.128 228.353 L 145.504 227.585 L 142.048 227.585 C 140.939 227.585 140.384 228.161 140.384 229.313 L 140.384 237.729 C 140.384 238.881 140.939 239.457 142.048 239.457 L 145.664 239.457 L 148.288 238.689 L 148.832 240.641 L 145.664 241.505 L 141.984 241.505 C 140.725 241.505 139.765 241.174 139.104 240.513 C 138.464 239.852 138.144 238.902 138.144 237.665 L 138.144 229.345 C 138.144 228.129 138.464 227.19 139.104 226.529 C 139.765 225.846 140.725 225.505 141.984 225.505 Z M 164.129 238.881 L 164.449 241.505 L 162.273 241.793 L 161.889 238.881 L 161.889 227.585 L 156.705 227.585 L 156.033 237.857 C 155.905 239.222 155.553 240.204 154.977 240.801 C 154.401 241.398 153.441 241.697 152.097 241.697 L 151.585 241.697 L 151.585 239.649 L 152.097 239.649 C 152.759 239.649 153.207 239.521 153.441 239.265 C 153.697 239.009 153.857 238.518 153.921 237.793 L 154.753 225.505 L 164.129 225.505 L 164.129 238.881 Z M 172.202 231.681 L 177.29 231.681 C 178.548 231.681 179.498 232.012 180.138 232.673 C 180.799 233.334 181.13 234.284 181.13 235.521 L 181.13 237.665 C 181.13 238.902 180.799 239.852 180.138 240.513 C 179.498 241.174 178.548 241.505 177.29 241.505 L 169.962 241.505 L 169.962 228.129 L 169.642 225.505 L 171.818 225.217 L 172.202 228.129 L 172.202 231.681 Z M 177.226 233.729 L 172.202 233.729 L 172.202 239.457 L 177.226 239.457 C 178.335 239.457 178.89 238.881 178.89 237.729 L 178.89 235.457 C 178.89 234.305 178.335 233.729 177.226 233.729 Z M 204.382 233.761 L 194.494 233.761 L 194.494 231.809 L 204.382 231.809 L 204.382 233.761 Z M 224.493 241.505 L 220.653 241.505 L 217.485 240.641 L 218.029 238.689 L 220.653 239.457 L 224.429 239.457 C 225.539 239.457 226.093 238.881 226.093 237.729 L 226.093 234.305 L 220.525 234.305 L 220.525 232.225 L 226.093 232.225 L 226.093 229.313 C 226.093 228.161 225.539 227.585 224.429 227.585 L 221.133 227.585 L 218.509 228.353 L 217.965 226.401 L 221.133 225.505 L 224.493 225.505 C 225.752 225.505 226.701 225.846 227.341 226.529 C 228.003 227.19 228.333 228.129 228.333 229.345 L 228.333 237.665 C 228.333 238.902 228.003 239.852 227.341 240.513 C 226.701 241.174 225.752 241.505 224.493 241.505 Z M 232.23 225.505 L 243.11 225.505 L 243.11 227.585 L 238.95 227.585 L 238.95 241.505 L 236.71 241.505 L 236.71 227.585 L 232.23 227.585 L 232.23 225.505 Z M 254.305 227.585 L 250.913 227.585 C 249.804 227.585 249.249 228.161 249.249 229.313 L 249.249 237.729 C 249.249 238.881 249.804 239.457 250.913 239.457 L 254.305 239.457 C 255.414 239.457 255.969 238.881 255.969 237.729 L 255.969 229.313 C 255.969 228.161 255.414 227.585 254.305 227.585 Z M 254.369 241.505 L 250.849 241.505 C 249.59 241.505 248.63 241.174 247.969 240.513 C 247.329 239.852 247.009 238.902 247.009 237.665 L 247.009 229.345 C 247.009 228.129 247.329 227.19 247.969 226.529 C 248.63 225.846 249.59 225.505 250.849 225.505 L 254.369 225.505 C 255.628 225.505 256.577 225.846 257.217 226.529 C 257.878 227.19 258.209 228.129 258.209 229.345 L 258.209 237.665 C 258.209 238.902 257.878 239.852 257.217 240.513 C 256.577 241.174 255.628 241.505 254.369 241.505 Z M 279.24 227.585 L 275.848 227.585 C 274.739 227.585 274.184 228.161 274.184 229.313 L 274.184 237.729 C 274.184 238.881 274.739 239.457 275.848 239.457 L 279.24 239.457 C 280.349 239.457 280.904 238.881 280.904 237.729 L 280.904 229.313 C 280.904 228.161 280.349 227.585 279.24 227.585 Z M 279.304 241.505 L 275.784 241.505 C 274.525 241.505 273.565 241.174 272.904 240.513 C 272.264 239.852 271.944 238.902 271.944 237.665 L 271.944 229.345 C 271.944 228.129 272.264 227.19 272.904 226.529 C 273.565 225.846 274.525 225.505 275.784 225.505 L 279.304 225.505 C 280.563 225.505 281.512 225.846 282.152 226.529 C 282.813 227.19 283.144 228.129 283.144 229.345 L 283.144 237.665 C 283.144 238.902 282.813 239.852 282.152 240.513 C 281.512 241.174 280.563 241.505 279.304 241.505 Z M 295.742 227.585 L 292.83 227.585 C 292.062 227.585 291.507 227.734 291.166 228.033 C 290.846 228.332 290.686 228.822 290.686 229.505 L 290.686 237.729 C 290.686 238.881 291.241 239.457 292.35 239.457 L 295.326 239.457 C 296.073 239.457 296.606 239.34 296.926 239.105 C 297.246 238.87 297.406 238.412 297.406 237.729 L 297.406 229.793 C 297.406 228.982 297.278 228.417 297.022 228.097 C 296.787 227.756 296.361 227.585 295.742 227.585 Z M 296.286 220.545 L 292.35 220.545 C 291.774 220.545 291.347 220.684 291.07 220.961 C 290.814 221.217 290.686 221.654 290.686 222.273 L 290.686 224.673 L 290.366 226.337 L 290.494 226.401 C 291.006 225.804 291.827 225.505 292.958 225.505 L 295.806 225.505 C 297.065 225.505 298.014 225.846 298.654 226.529 C 299.315 227.19 299.646 228.129 299.646 229.345 L 299.646 236.929 C 299.646 238.444 299.358 239.585 298.782 240.353 C 298.206 241.121 297.214 241.505 295.806 241.505 L 292.286 241.505 C 290.878 241.505 289.886 241.121 289.31 240.353 C 288.734 239.585 288.446 238.444 288.446 236.929 L 288.446 223.073 C 288.446 221.558 288.734 220.417 289.31 219.649 C 289.886 218.86 290.878 218.465 292.286 218.465 L 296.286 218.465 L 298.91 217.697 L 299.454 219.649 L 296.286 220.545 Z M 305.105 228.129 L 304.785 225.569 L 306.961 225.281 L 307.249 227.553 L 310.865 225.505 L 312.465 225.505 C 313.703 225.505 314.652 225.846 315.313 226.529 C 315.975 227.19 316.305 228.129 316.305 229.345 L 316.305 237.665 C 316.305 238.881 315.975 239.83 315.313 240.513 C 314.652 241.174 313.703 241.505 312.465 241.505 L 310.929 241.505 L 307.345 240.801 L 307.345 248.865 L 305.105 248.865 L 305.105 228.129 Z M 311.377 227.585 L 307.345 229.825 L 307.345 238.753 L 310.993 239.457 L 312.401 239.457 C 313.511 239.457 314.065 238.881 314.065 237.729 L 314.065 229.313 C 314.065 228.161 313.511 227.585 312.401 227.585 L 311.377 227.585 Z M 321.631 226.401 L 324.831 225.505 L 328.479 225.505 C 329.738 225.505 330.687 225.846 331.327 226.529 C 331.988 227.19 332.319 228.129 332.319 229.345 L 332.319 238.977 L 332.671 241.505 L 330.463 241.761 L 330.111 238.913 L 326.527 241.505 L 324.959 241.505 C 323.722 241.505 322.772 241.174 322.111 240.513 C 321.45 239.83 321.119 238.881 321.119 237.665 L 321.119 235.713 C 321.119 234.497 321.45 233.558 322.111 232.897 C 322.772 232.214 323.722 231.873 324.959 231.873 L 330.079 231.873 L 330.079 229.313 C 330.079 228.161 329.524 227.585 328.415 227.585 L 324.831 227.585 L 322.207 228.353 L 321.631 226.401 Z M 325.023 239.457 L 325.951 239.457 L 330.079 236.449 L 330.079 233.857 L 325.023 233.857 C 323.914 233.857 323.359 234.433 323.359 235.585 L 323.359 237.729 C 323.359 238.881 323.914 239.457 325.023 239.457 Z M 344.022 241.505 L 340.342 241.505 L 337.174 240.641 L 337.718 238.689 L 340.342 239.457 L 343.958 239.457 C 345.067 239.457 345.622 238.881 345.622 237.729 L 345.622 236.033 C 345.622 234.86 345.014 234.273 343.798 234.273 L 339.99 234.273 L 339.99 232.225 L 343.126 232.225 C 344.342 232.225 344.95 231.649 344.95 230.497 L 344.95 229.313 C 344.95 228.161 344.395 227.585 343.286 227.585 L 340.502 227.585 L 338.39 228.193 L 337.846 226.241 L 340.502 225.505 L 343.35 225.505 C 344.587 225.505 345.537 225.846 346.198 226.529 C 346.859 227.19 347.19 228.129 347.19 229.345 L 347.19 230.113 C 347.19 231.649 346.657 232.62 345.59 233.025 L 345.302 233.025 L 345.302 233.153 L 345.622 233.153 C 347.115 233.58 347.862 234.625 347.862 236.289 L 347.862 237.665 C 347.862 238.902 347.531 239.852 346.87 240.513 C 346.23 241.174 345.281 241.505 344.022 241.505 Z M 354.835 241.601 L 354.259 241.601 C 353.918 241.601 353.63 241.494 353.395 241.281 C 353.16 241.046 353.043 240.748 353.043 240.385 L 353.043 239.809 C 353.043 239.446 353.15 239.158 353.363 238.945 C 353.598 238.71 353.896 238.593 354.259 238.593 L 354.835 238.593 C 355.198 238.593 355.486 238.71 355.699 238.945 C 355.934 239.158 356.051 239.446 356.051 239.809 L 356.051 240.385 C 356.051 240.748 355.934 241.046 355.699 241.281 C 355.486 241.494 355.198 241.601 354.835 241.601 Z" fill="#736F6F" fill-opacity="0.91" transform="matrix(1, 0, 0, 1, 7.105427357601002e-15, 7.105427357601002e-15)"/>
</svg>