<?xml version="1.0" encoding="utf-8"?>
<svg viewBox="66.727 129.238 333.814 118.499" width="667.628" height="236.998" xmlns="http://www.w3.org/2000/svg">
  <path d="M 99.25 148.285 C 99.25 141.577 100.957 136.74 104.372 133.775 C 107.875 130.751 113.491 129.238 121.217 129.238 L 123.957 129.238 L 123.957 161.537 C 123.957 175.463 119.974 184.387 112.008 188.311 C 109.223 189.688 105.884 190.377 101.991 190.377 L 99.25 190.377 L 99.25 148.285 Z M 88.649 190.377 C 81.132 190.377 75.532 187.757 71.848 182.516 C 68.434 177.664 66.727 170.671 66.727 161.537 L 66.727 129.238 L 69.467 129.238 C 77.194 129.238 82.809 130.751 86.313 133.775 C 89.727 136.74 91.434 141.577 91.434 148.285 L 91.434 190.377 L 88.649 190.377 Z M 134.694 129.238 L 158.862 129.238 L 158.862 190.287 L 134.694 190.287 L 134.694 129.238 Z M 166.319 145.859 C 166.319 139.241 167.996 134.794 171.35 132.518 C 174.524 130.391 180.499 129.328 189.274 129.328 L 193.811 129.328 L 193.811 137.818 C 193.811 144.587 192.089 149.408 188.645 152.283 C 185.141 155.158 179.106 156.596 170.541 156.596 L 166.319 156.596 L 166.319 145.859 Z M 166.319 161.268 L 170.541 161.268 C 178.987 161.268 185.021 162.945 188.645 166.299 C 192.089 169.503 193.811 174.565 193.811 181.482 L 193.811 190.377 L 189.274 190.377 C 180.679 190.377 174.704 189.089 171.35 186.514 C 167.996 183.908 166.319 179.236 166.319 172.498 L 166.319 161.268 Z M 204.727 129.238 L 228.895 129.238 L 228.895 190.287 L 204.727 190.287 L 204.727 129.238 Z M 236.621 186.02 C 236.621 179.82 240.215 175.613 247.403 173.397 C 250.158 172.558 253.707 172.139 258.049 172.139 L 261.598 172.139 L 261.598 190.377 L 236.621 190.377 L 236.621 186.02 Z M 306.205 129.238 L 310.248 129.238 C 321.269 129.238 327.843 132.967 329.969 140.424 C 330.688 142.88 331.047 145.695 331.047 148.869 L 331.047 190.377 L 306.205 190.377 L 306.205 129.238 Z M 273.053 148.869 C 273.053 142.251 274.565 137.399 277.59 134.315 C 280.914 130.93 286.335 129.238 293.852 129.238 L 297.895 129.238 L 297.895 190.377 L 273.053 190.377 L 273.053 148.869 Z M 373.004 129.238 L 376.778 129.238 C 389.476 129.238 397.022 134.824 399.418 145.994 C 400.167 149.378 400.541 153.331 400.541 157.854 C 400.541 162.376 400.062 166.688 399.104 170.791 C 398.175 174.894 396.738 178.398 394.791 181.303 C 390.748 187.352 384.744 190.377 376.778 190.377 L 373.004 190.377 L 373.004 129.238 Z M 341.379 129.238 L 365.547 129.238 L 365.547 190.287 L 341.379 190.287 L 341.379 129.238 Z" style="fill: rgb(255, 255, 255);" transform="matrix(1, 0, 0, 1, 7.105427357601002e-15, 7.105427357601002e-15)"/>
  <path d="M 114.036 221.561 L 112.756 225.401 L 108.34 235.609 L 106.42 235.609 L 102.004 225.401 L 100.724 221.561 L 100.596 221.561 L 100.98 227.545 L 100.98 240.377 L 98.74 240.377 L 98.74 217.977 L 100.98 217.977 L 107.38 232.953 L 113.78 217.977 L 116.02 217.977 L 116.02 240.377 L 113.78 240.377 L 113.78 227.545 L 114.164 221.561 L 114.036 221.561 Z M 121.981 227.001 L 121.661 224.377 L 123.837 224.089 L 124.221 227.001 L 124.221 230.553 L 129.309 230.553 C 130.568 230.553 131.517 230.884 132.157 231.545 C 132.818 232.206 133.149 233.156 133.149 234.393 L 133.149 236.537 C 133.149 237.774 132.818 238.724 132.157 239.385 C 131.517 240.046 130.568 240.377 129.309 240.377 L 121.981 240.377 L 121.981 227.001 Z M 129.245 232.601 L 124.221 232.601 L 124.221 238.329 L 129.245 238.329 C 129.842 238.329 130.269 238.201 130.525 237.945 C 130.781 237.689 130.909 237.241 130.909 236.601 L 130.909 234.329 C 130.909 233.71 130.781 233.273 130.525 233.017 C 130.269 232.74 129.842 232.601 129.245 232.601 Z M 135.485 224.377 L 137.725 224.377 L 137.725 237.753 L 138.045 240.377 L 135.869 240.665 L 135.485 237.753 L 135.485 224.377 Z M 147.062 224.377 L 150.582 224.377 L 153.75 225.273 L 153.206 227.225 L 150.582 226.457 L 147.126 226.457 C 146.017 226.457 145.462 227.033 145.462 228.185 L 145.462 236.601 C 145.462 237.753 146.017 238.329 147.126 238.329 L 150.742 238.329 L 153.366 237.561 L 153.91 239.513 L 150.742 240.377 L 147.062 240.377 C 145.803 240.377 144.843 240.046 144.182 239.385 C 143.542 238.724 143.222 237.774 143.222 236.537 L 143.222 228.217 C 143.222 227.001 143.542 226.062 144.182 225.401 C 144.843 224.718 145.803 224.377 147.062 224.377 Z M 169.207 237.753 L 169.527 240.377 L 167.351 240.665 L 166.967 237.753 L 166.967 226.457 L 161.783 226.457 L 161.111 236.729 C 160.983 238.094 160.631 239.076 160.055 239.673 C 159.479 240.27 158.519 240.569 157.175 240.569 L 156.663 240.569 L 156.663 238.521 L 157.175 238.521 C 157.837 238.521 158.285 238.393 158.519 238.137 C 158.775 237.881 158.935 237.39 158.999 236.665 L 159.831 224.377 L 169.207 224.377 L 169.207 237.753 Z M 177.28 230.553 L 182.368 230.553 C 183.626 230.553 184.576 230.884 185.216 231.545 C 185.877 232.206 186.208 233.156 186.208 234.393 L 186.208 236.537 C 186.208 237.774 185.877 238.724 185.216 239.385 C 184.576 240.046 183.626 240.377 182.368 240.377 L 175.04 240.377 L 175.04 227.001 L 174.72 224.377 L 176.896 224.089 L 177.28 227.001 L 177.28 230.553 Z M 182.304 232.601 L 177.28 232.601 L 177.28 238.329 L 182.304 238.329 C 183.413 238.329 183.968 237.753 183.968 236.601 L 183.968 234.329 C 183.968 233.177 183.413 232.601 182.304 232.601 Z M 209.46 232.633 L 199.572 232.633 L 199.572 230.681 L 209.46 230.681 L 209.46 232.633 Z M 229.571 240.377 L 225.731 240.377 L 222.563 239.513 L 223.107 237.561 L 225.731 238.329 L 229.507 238.329 C 230.617 238.329 231.171 237.753 231.171 236.601 L 231.171 233.177 L 225.603 233.177 L 225.603 231.097 L 231.171 231.097 L 231.171 228.185 C 231.171 227.033 230.617 226.457 229.507 226.457 L 226.211 226.457 L 223.587 227.225 L 223.043 225.273 L 226.211 224.377 L 229.571 224.377 C 230.83 224.377 231.779 224.718 232.419 225.401 C 233.081 226.062 233.411 227.001 233.411 228.217 L 233.411 236.537 C 233.411 237.774 233.081 238.724 232.419 239.385 C 231.779 240.046 230.83 240.377 229.571 240.377 Z M 237.308 224.377 L 248.188 224.377 L 248.188 226.457 L 244.028 226.457 L 244.028 240.377 L 241.788 240.377 L 241.788 226.457 L 237.308 226.457 L 237.308 224.377 Z M 259.383 226.457 L 255.991 226.457 C 254.882 226.457 254.327 227.033 254.327 228.185 L 254.327 236.601 C 254.327 237.753 254.882 238.329 255.991 238.329 L 259.383 238.329 C 260.492 238.329 261.047 237.753 261.047 236.601 L 261.047 228.185 C 261.047 227.033 260.492 226.457 259.383 226.457 Z M 259.447 240.377 L 255.927 240.377 C 254.668 240.377 253.708 240.046 253.047 239.385 C 252.407 238.724 252.087 237.774 252.087 236.537 L 252.087 228.217 C 252.087 227.001 252.407 226.062 253.047 225.401 C 253.708 224.718 254.668 224.377 255.927 224.377 L 259.447 224.377 C 260.706 224.377 261.655 224.718 262.295 225.401 C 262.956 226.062 263.287 227.001 263.287 228.217 L 263.287 236.537 C 263.287 237.774 262.956 238.724 262.295 239.385 C 261.655 240.046 260.706 240.377 259.447 240.377 Z M 284.318 226.457 L 280.926 226.457 C 279.817 226.457 279.262 227.033 279.262 228.185 L 279.262 236.601 C 279.262 237.753 279.817 238.329 280.926 238.329 L 284.318 238.329 C 285.427 238.329 285.982 237.753 285.982 236.601 L 285.982 228.185 C 285.982 227.033 285.427 226.457 284.318 226.457 Z M 284.382 240.377 L 280.862 240.377 C 279.603 240.377 278.643 240.046 277.982 239.385 C 277.342 238.724 277.022 237.774 277.022 236.537 L 277.022 228.217 C 277.022 227.001 277.342 226.062 277.982 225.401 C 278.643 224.718 279.603 224.377 280.862 224.377 L 284.382 224.377 C 285.641 224.377 286.59 224.718 287.23 225.401 C 287.891 226.062 288.222 227.001 288.222 228.217 L 288.222 236.537 C 288.222 237.774 287.891 238.724 287.23 239.385 C 286.59 240.046 285.641 240.377 284.382 240.377 Z M 300.82 226.457 L 297.908 226.457 C 297.14 226.457 296.585 226.606 296.244 226.905 C 295.924 227.204 295.764 227.694 295.764 228.377 L 295.764 236.601 C 295.764 237.753 296.319 238.329 297.428 238.329 L 300.404 238.329 C 301.151 238.329 301.684 238.212 302.004 237.977 C 302.324 237.742 302.484 237.284 302.484 236.601 L 302.484 228.665 C 302.484 227.854 302.356 227.289 302.1 226.969 C 301.865 226.628 301.439 226.457 300.82 226.457 Z M 301.364 219.417 L 297.428 219.417 C 296.852 219.417 296.425 219.556 296.148 219.833 C 295.892 220.089 295.764 220.526 295.764 221.145 L 295.764 223.545 L 295.444 225.209 L 295.572 225.273 C 296.084 224.676 296.905 224.377 298.036 224.377 L 300.884 224.377 C 302.143 224.377 303.092 224.718 303.732 225.401 C 304.393 226.062 304.724 227.001 304.724 228.217 L 304.724 235.801 C 304.724 237.316 304.436 238.457 303.86 239.225 C 303.284 239.993 302.292 240.377 300.884 240.377 L 297.364 240.377 C 295.956 240.377 294.964 239.993 294.388 239.225 C 293.812 238.457 293.524 237.316 293.524 235.801 L 293.524 221.945 C 293.524 220.43 293.812 219.289 294.388 218.521 C 294.964 217.732 295.956 217.337 297.364 217.337 L 301.364 217.337 L 303.988 216.569 L 304.532 218.521 L 301.364 219.417 Z M 310.183 227.001 L 309.863 224.441 L 312.039 224.153 L 312.327 226.425 L 315.943 224.377 L 317.543 224.377 C 318.781 224.377 319.73 224.718 320.391 225.401 C 321.053 226.062 321.383 227.001 321.383 228.217 L 321.383 236.537 C 321.383 237.753 321.053 238.702 320.391 239.385 C 319.73 240.046 318.781 240.377 317.543 240.377 L 316.007 240.377 L 312.423 239.673 L 312.423 247.737 L 310.183 247.737 L 310.183 227.001 Z M 316.455 226.457 L 312.423 228.697 L 312.423 237.625 L 316.071 238.329 L 317.479 238.329 C 318.589 238.329 319.143 237.753 319.143 236.601 L 319.143 228.185 C 319.143 227.033 318.589 226.457 317.479 226.457 L 316.455 226.457 Z M 326.709 225.273 L 329.909 224.377 L 333.557 224.377 C 334.816 224.377 335.765 224.718 336.405 225.401 C 337.066 226.062 337.397 227.001 337.397 228.217 L 337.397 237.849 L 337.749 240.377 L 335.541 240.633 L 335.189 237.785 L 331.605 240.377 L 330.037 240.377 C 328.8 240.377 327.85 240.046 327.189 239.385 C 326.528 238.702 326.197 237.753 326.197 236.537 L 326.197 234.585 C 326.197 233.369 326.528 232.43 327.189 231.769 C 327.85 231.086 328.8 230.745 330.037 230.745 L 335.157 230.745 L 335.157 228.185 C 335.157 227.033 334.602 226.457 333.493 226.457 L 329.909 226.457 L 327.285 227.225 L 326.709 225.273 Z M 330.101 238.329 L 331.029 238.329 L 335.157 235.321 L 335.157 232.729 L 330.101 232.729 C 328.992 232.729 328.437 233.305 328.437 234.457 L 328.437 236.601 C 328.437 237.753 328.992 238.329 330.101 238.329 Z M 349.1 240.377 L 345.42 240.377 L 342.252 239.513 L 342.796 237.561 L 345.42 238.329 L 349.036 238.329 C 350.145 238.329 350.7 237.753 350.7 236.601 L 350.7 234.905 C 350.7 233.732 350.092 233.145 348.876 233.145 L 345.068 233.145 L 345.068 231.097 L 348.204 231.097 C 349.42 231.097 350.028 230.521 350.028 229.369 L 350.028 228.185 C 350.028 227.033 349.473 226.457 348.364 226.457 L 345.58 226.457 L 343.468 227.065 L 342.924 225.113 L 345.58 224.377 L 348.428 224.377 C 349.665 224.377 350.615 224.718 351.276 225.401 C 351.937 226.062 352.268 227.001 352.268 228.217 L 352.268 228.985 C 352.268 230.521 351.735 231.492 350.668 231.897 L 350.38 231.897 L 350.38 232.025 L 350.7 232.025 C 352.193 232.452 352.94 233.497 352.94 235.161 L 352.94 236.537 C 352.94 237.774 352.609 238.724 351.948 239.385 C 351.308 240.046 350.359 240.377 349.1 240.377 Z M 359.913 240.473 L 359.337 240.473 C 358.996 240.473 358.708 240.366 358.473 240.153 C 358.238 239.918 358.121 239.62 358.121 239.257 L 358.121 238.681 C 358.121 238.318 358.228 238.03 358.441 237.817 C 358.676 237.582 358.974 237.465 359.337 237.465 L 359.913 237.465 C 360.276 237.465 360.564 237.582 360.777 237.817 C 361.012 238.03 361.129 238.318 361.129 238.681 L 361.129 239.257 C 361.129 239.62 361.012 239.918 360.777 240.153 C 360.564 240.366 360.276 240.473 359.913 240.473 Z" fill="#736F6F" fill-opacity="0.91" transform="matrix(1, 0, 0, 1, 7.105427357601002e-15, 7.105427357601002e-15)"/>
</svg>